/* XPM */
static const char *antial[]={
"16 16 5 1",
". c None",
"b c #000000",
"# c #000040",
"a c #585858",
"c c #808080",
"................",
"........#.....ab",
".......#.....aba",
"......#......ba.",
"......#.....ab..",
".....#.....cba..",
"....#.....aba...",
"....#.....aba...",
"...#.....cba....",
"..#.....cba.....",
"..#.....abc.....",
".#.....cba......",
".#.....cbc......",
"................",
"................",
"................"};
