/* XPM */
static const char * appicon[] = {
"48 48 103 2",
"  	c None",
". 	c #352EDE",
"+ 	c #3E37E7",
"@ 	c #3F38E8",
"# 	c #3730E0",
"$ 	c #322BDB",
"% 	c #1D16C6",
"& 	c #1912C2",
"* 	c #CC2222",
"= 	c #49E1DE",
"- 	c #E5E5FF",
"; 	c #E3E3FF",
"> 	c #E6E6FF",
", 	c #E8E8FF",
"' 	c #A0A0FF",
") 	c #6C6CFF",
"! 	c #6464FF",
"~ 	c #7575FF",
"{ 	c #C2C2FF",
"] 	c #7D7DFF",
"^ 	c #D0D0FF",
"/ 	c #7272FF",
"( 	c #5B39D2",
"_ 	c #9B9BFF",
": 	c #C1C1FF",
"< 	c #6161FF",
"[ 	c #3E32F0",
"} 	c #A2A2FF",
"| 	c #8E287A",
"1 	c #4141FF",
"2 	c #ADADFF",
"3 	c #8686FF",
"4 	c #9898FF",
"5 	c #9595FF",
"6 	c #7A7AFF",
"7 	c #5B5BFF",
"8 	c #9C9CFF",
"9 	c #9090FF",
"0 	c #3D3DFF",
"a 	c #5F5FFF",
"b 	c #9E9EFF",
"c 	c #D8D8FF",
"d 	c #E4E4FF",
"e 	c #3434FF",
"f 	c #9999FF",
"g 	c #CDDBFC",
"h 	c #7878FF",
"i 	c #792A97",
"j 	c #D7D7FF",
"k 	c #5E5EFF",
"l 	c #9393FF",
"m 	c #E2E2FF",
"n 	c #2A2AFF",
"o 	c #6363FF",
"p 	c #A9437A",
"q 	c #3F3FFF",
"r 	c #9696FF",
"s 	c #DADAFF",
"t 	c #6F6FFF",
"u 	c #A7A7FF",
"v 	c #2BDFD8",
"w 	c #CDCDFF",
"x 	c #3131FF",
"y 	c #E1E1FF",
"z 	c #6767FF",
"A 	c #DCDCFF",
"B 	c #83E5EA",
"C 	c #E7E7FF",
"D 	c #621397",
"E 	c #B6233F",
"F 	c #4242FF",
"G 	c #821C7A",
"H 	c #7F3097",
"I 	c #B4203F",
"J 	c #DDDDFF",
"K 	c #A1A1FF",
"L 	c #8A8AFF",
"M 	c #D9D9FF",
"N 	c #3333FF",
"O 	c #BFBFFF",
"P 	c #6A48D2",
"Q 	c #4826D2",
"R 	c #A22358",
"S 	c #CBCBFF",
"T 	c #672EB5",
"U 	c #C9C9FF",
"V 	c #5858FF",
"W 	c #D6D6FF",
"X 	c #AA5B97",
"Y 	c #964697",
"Z 	c #6A5FF0",
"` 	c #B6223F",
" .	c #991D5C",
"..	c #4040FF",
"+.	c #CFCFFF",
"@.	c #752697",
"#.	c #8A247A",
"$.	c #3535FF",
"%.	c #2A23D3",
"&.	c #0D06B6",
"*.	c #1009B9",
"=.	c #1811C1",
"-.	c #110ABA",
". + @ @ @ @ @ @ @ @ @ @ @ @ @ @ @ @ @ @ @ @ @ @ @ @ @ @ @ @ @ @ @ @ @ @ @ @ @ @ @ @ @ @ @ @ @ # ",
"$ . @ @ @ @ @ @ @ @ @ @ @ @ @ @ @ @ @ @ @ @ @ @ @ @ @ @ @ @ @ @ @ @ @ @ @ @ @ @ @ @ @ @ @ @ # % ",
"$ $ . + @ @ @ @ @ @ @ @ @ @ @ @ @ @ @ @ @ @ @ @ @ @ @ @ @ @ @ @ @ @ @ @ @ @ @ @ @ @ @ @ @ # & & ",
"$ $ $ . @ @ @ @ @ @ @ @ @ @ @ @ @ @ @ @ @ @ @ @ @ @ @ @ @ @ @ @ @ @ @ @ @ @ @ @ @ @ @ @ # % & & ",
"$ $ $ $ . + @ @ @ @ @ @ @ @ @ @ @ @ @ @ @ @ @ @ @ @ @ @ @ @ @ @ @ @ @ @ @ @ @ @ @ @ @ # & & & & ",
"$ $ $ $ $ . @ @ @ @ @ @ @ @ @ @ @ @ @ @ @ @ @ @ @ @ @ @ @ @ @ @ @ @ @ @ @ @ @ @ @ @ # % & & & & ",
"$ $ $ $ $ $ . + @ @ @ @ @ @ @ @ @ @ @ @ @ @ @ @ @ @ @ @ @ @ @ @ @ @ @ @ @ @ @ @ @ # & & & & & & ",
"$ $ $ $ $ $ $ . @ @ @ @ @ @ @ @ @ @ @ @ @ @ @ @ @ @ @ @ @ @ @ @ @ @ @ @ @ @ @ @ # % & & & & & & ",
"$ $ $ $ $ $ $ $ * * * * * * * * * * * * * * * * * * * * * * * * * * * * * * * * & & & & & & & & ",
"$ $ $ $ $ $ $ $ * * * * * * * * * * * * * * * * * * * * * * * * * * * * * * * * & & & & & & & & ",
"$ $ $ $ $ $ $ $ * * * * * * * * * * * * * * * * * * * * * * * * * * * * * * * * & & & & & & & & ",
"$ $ $ $ $ $ $ $ * * * * * * * * * * * * * * * * * * * * * * * * * * * * * * * * & & & & & & & & ",
"$ $ $ $ $ $ $ $ * * * * * * * * * * * * * * * * * * * * * * * * * * * * * * * * & & & & & & & & ",
"$ $ $ $ $ $ $ $ * * * * = - ; ; ; > * * = , * * * * * * * * * * = - ; ; ; > * * & & & & & & & & ",
"$ $ $ $ $ $ $ $ * * * = ' ) ! ! ! ~ { - ' ] { * * * * * * * * = ' ) ! ! ! ~ { * & & & & & & & & ",
"$ $ $ $ $ $ $ $ * * = ^ / * * * * ( _ : < [ } * * * * * * * * , ] | * * * 1 2 * & & & & & & & & ",
"$ $ $ $ $ $ $ $ * = ' / 3 4 _ _ _ 5 6 7 * * 8 * * * * * * * * * { 9 0 * a b c * & & & & & & & & ",
"$ $ $ $ $ $ $ $ * d * e f * * * * g h i * * 8 * * * = , * * * * * j k * l - * * & & & & & & & & ",
"$ $ $ $ $ $ $ $ * m * n 8 * * * * * { 9 0 * 8 * * = ' ] { * * * * m o * 8 * * * & & & & & & & & ",
"$ $ $ $ $ $ $ $ * > p q r c * * * * * s t 1 u v = w < x 9 j ; > * y o * 8 * * * & & & & & & & & ",
"$ $ $ $ $ $ $ $ * * { _ 6 z ! ~ { * * * { 2 c , ' < * * 0 k ! ~ { s o * 8 * * * & & & & & & & & ",
"$ $ $ $ $ $ $ $ * * * A h * * * 9 j * * B * * C ] x * D * * E F 2 j o * 8 * * * & & & & & & & & ",
"$ $ $ $ $ $ $ $ * * * * { 9 0 G 0 k ! ~ { * * * { 9 H I a l _ u c J o * 8 * * * & & & & & & & & ",
"$ $ $ $ $ $ $ $ * * * * * s t * * * * * 9 s * * * j k * l ; * * * m o * 8 * * * & & & & & & & & ",
"$ $ $ $ $ $ $ $ * * * * * * { K _ L 0 G 0 t { * * m o * 8 * * * * m o * 8 * * * & & & & & & & & ",
"$ $ $ $ $ $ $ $ * * = , * * * * * M t * G * } * * m o * 8 * * * * m o * 8 * * * & & & & & & & & ",
"$ $ $ $ $ $ $ $ * = ' ] { * * * * * { 9 * * 8 * * m o * 8 * * * * m o * 8 * * * & & & & & & & & ",
"$ $ $ $ $ $ $ $ * d ) N 9 s * * * * - O P Q 8 * * m o * 8 * * * * m o * 8 * * * & & & & & & & & ",
"$ $ $ $ $ $ $ $ * m o * 0 t { * * = ' < R * 8 * * m o * 8 * * * * m o * 8 * * * & & & & & & & & ",
"$ $ $ $ $ $ $ $ * m o * * 0 _ M ; S < * * T u * * > ~ ( r c ; ; ; U V * L W ; ; & & & & & & & & ",
"$ $ $ $ $ $ $ $ * m o * a X * Y Z V ` * a b c * * * { _ 6 z ! ! ! V *  .0 k ! ! & & & & & & & & ",
"$ $ $ $ $ $ $ $ * > ~ ..b +.* * @.#.* $.b C * * * * * A h T * * * * * * * * * * & & & & & & & & ",
"$ $ $ $ $ $ $ $ * * { 2 c v { K _ _ _ u c * * * * * * * { K _ _ _ _ _ _ _ _ _ _ & & & & & & & & ",
"$ $ $ $ $ $ $ $ * * * * * * * * * * * * * * * * * * * * * * * * * * * * * * * * & & & & & & & & ",
"$ $ $ $ $ $ $ $ * * * * * * * * * * * * * * * * * * * * * * * * * * * * * * * * & & & & & & & & ",
"$ $ $ $ $ $ $ $ * * * * * * * * * * * * * * * * * * * * * * * * * * * * * * * * & & & & & & & & ",
"$ $ $ $ $ $ $ $ * * * * * * * * * * * * * * * * * * * * * * * * * * * * * * * * & & & & & & & & ",
"$ $ $ $ $ $ $ $ * * * * * * * * * * * * * * * * * * * * * * * * * * * * * * * * & & & & & & & & ",
"$ $ $ $ $ $ $ $ * * * * * * * * * * * * * * * * * * * * * * * * * * * * * * * * & & & & & & & & ",
"$ $ $ $ $ $ $ $ * * * * * * * * * * * * * * * * * * * * * * * * * * * * * * * * & & & & & & & & ",
"$ $ $ $ $ $ $ %.&.&.&.&.&.&.&.&.&.&.&.&.&.&.&.&.&.&.&.&.&.&.&.&.&.&.&.&.&.&.&.&.*.=.& & & & & & ",
"$ $ $ $ $ $ %.-.&.&.&.&.&.&.&.&.&.&.&.&.&.&.&.&.&.&.&.&.&.&.&.&.&.&.&.&.&.&.&.&.&.*.& & & & & & ",
"$ $ $ $ $ %.&.&.&.&.&.&.&.&.&.&.&.&.&.&.&.&.&.&.&.&.&.&.&.&.&.&.&.&.&.&.&.&.&.&.&.&.*.=.& & & & ",
"$ $ $ $ %.-.&.&.&.&.&.&.&.&.&.&.&.&.&.&.&.&.&.&.&.&.&.&.&.&.&.&.&.&.&.&.&.&.&.&.&.&.&.*.& & & & ",
"$ $ $ %.&.&.&.&.&.&.&.&.&.&.&.&.&.&.&.&.&.&.&.&.&.&.&.&.&.&.&.&.&.&.&.&.&.&.&.&.&.&.&.&.*.=.& & ",
"$ $ %.-.&.&.&.&.&.&.&.&.&.&.&.&.&.&.&.&.&.&.&.&.&.&.&.&.&.&.&.&.&.&.&.&.&.&.&.&.&.&.&.&.&.*.& & ",
"$ %.&.&.&.&.&.&.&.&.&.&.&.&.&.&.&.&.&.&.&.&.&.&.&.&.&.&.&.&.&.&.&.&.&.&.&.&.&.&.&.&.&.&.&.&.*.=.",
"%.-.&.&.&.&.&.&.&.&.&.&.&.&.&.&.&.&.&.&.&.&.&.&.&.&.&.&.&.&.&.&.&.&.&.&.&.&.&.&.&.&.&.&.&.&.&.*."};
