/* XPM */
static const char *axo[]={
"20 20 5 1",
"# c #000000",
"a c #004000",
"c c #00ffff",
". c #c0c0c0",
"b c #ffff00",
"....................",
"....................",
".........##.........",
"........#.a##.......",
".......#..a..##.....",
"......#...a....##...",
".....##...a....##...",
".....#.##.a...#.#...",
".....#...##..#..#...",
"..b..#...aa##...#...",
".bbb.#bba..c#...#...",
"..b..#ba....#aa.#...",
"..b..#a.....#..a#...",
"..b.b##.....#..#....",
"..bb...##...#.#.....",
"...bbbbb.##.##......",
"......bb...##.......",
".....bbb............",
"....................",
"...................."};
