/* XPM */
static const char *bottom[]={
"16 16 4 1",
". c None",
"a c #800000",
"# c #808080",
"b c #ffff00",
"....##########..",
"...##.......##..",
"..#.#......#.#..",
".##########..#..",
".#..#.....#..#..",
".#..#.....#..#..",
".#..#.....#..#..",
".#..#.....#..#..",
".#..#.....#..#..",
".#..aaaaaaaaaa..",
".#.aaaabaa#aa...",
".#aaaabbbaaa....",
".aaaaaaaaaa.....",
".....b.b.b......",
".......b........",
".......b........"};
