/* XPM */
static const char *fitall[]={
"16 16 5 1",
"# c None",
"b c #000000",
"c c #808000",
"a c #808080",
". c #ffff00",
"...##########...",
"..#####aaaaa##..",
".#.###a#####a.#.",
"###.#a#######a##",
"####aa#######aa#",
"####a#########a#",
"####a#########a#",
"####aa#######aa#",
"#####a#######a##",
"#####ab#####a###",
"####bb#aaaaa####",
"###bb###########",
"##cb########.###",
".ac##########.#.",
"..############..",
"...##########..."};
