/* XPM */
static const char *left_view[]={
"16 16 4 1",
". c None",
"a c #800000",
"# c #808080",
"b c #ffff00",
"................",
"................",
"......##########",
".....##.......##",
"....#a#......#.#",
"...##########..#",
"..b#aa#.....#..#",
"...#ba#.....#..#",
"bbb#bb#.....#..#",
"...#ba#.....#..#",
"..b#aa#.....#..#",
"...#aa##########",
"...#a#......#.#.",
"...##.......##..",
"...##########...",
"................"};
