/* XPM */
static const char *reset_xpm[]={
"16 16 3 1",
". c None",
"# c #000000",
"a c #ffff00",
"................",
".........#......",
"........###.###.",
".........#...##.",
".........#..#.#.",
".........#.#....",
".........##..#..",
"..........#####.",
"..aaa........#..",
".aa.aa..........",
".aa.aa..........",
".aa.aa..........",
".aa.aa..........",
"..aaa...........",
"................",
"................"};
