/* XPM */
static const char *right_view[]={
"16 16 4 1",
". c None",
"a c #800000",
"# c #808080",
"b c #ffff00",
"................",
"................",
"...#########a...",
"..##.......aa...",
".#.#......aaa...",
"#########aaab...",
"#..#.....aaba...",
"#..#.....abbbbbb",
"#..#.....aaba...",
"#..#.....aaab...",
"#..#.....aaaa...",
"#..######aaaa...",
"#.#......aaa....",
"##.......aa.....",
"#########a......",
"................"};
