/* XPM */
static const char* stl[] = {
"16 16 2 1",
" 	c #FFFFFFFFFFFF",
".	c #FFFF00000000",
"                ",
"                ",
"                ",
"  ... .     ... ",
" .   ..      .  ",
" .    .  .   .  ",
"  ..    .... .  ",
"   ...   .   .  ",
"     ..  .   .  ",
" .    .  .   .  ",
" ..  ..  .   .  ",
" . ...    ......",
"                ",
"                ",
"                ",
"                "};
