/* XPM */
static const char *top[]={
"16 16 4 1",
". c None",
"a c #800000",
"b c #808080",
"# c #ffff00",
".......#........",
".......#........",
".....#.#.#......",
"....aa###aaaaa..",
"...aaaa#aaaaab..",
"..aaaaaaaaaa.b..",
".aaaaaaaaaa..b..",
".b..b.....b..b..",
".b..b.....b..b..",
".b..b.....b..b..",
".b..b.....b..b..",
".b..b.....b..b..",
".b..bbbbbbbbbb..",
".b.b......b.b...",
".bb.......bb....",
".bbbbbbbbbb....."};
