/* XPM */
static const char *zoomwin[]={
"16 16 4 1",
". c None",
"b c #000000",
"a c #808080",
"# c #ffff00",
".#..............",
"###aaaa.aaaaaab.",
".#.....a....a.a.",
".a....a......aa.",
".a...aa......aa.",
".a...a........a.",
".a...a........a.",
".a...aa......aa.",
".a....a......aa.",
".a....ab....a.a.",
".a...bb.aaaa..a.",
"....bb........a.",
"...bb.........a.",
"..bb..........#.",
"..a...aaaaaaa###",
"..............#."};
